<mxfile host="65bd71144e" modified="2021-01-12T03:49:10.127Z" agent="5.0 (X11; Linux x86_64) AppleWebKit/537.36 (KHTML, like Gecko) Code/1.52.1 Chrome/83.0.4103.122 Electron/9.3.5 Safari/537.36" etag="CvDJsvfFMuD_yi_tbVLJ" version="13.10.0" type="embed">
    <diagram id="C5RBs43oDa-KdzZeNtuy" name="Page-1">
        <mxGraphModel dx="339" dy="506" grid="1" gridSize="10" guides="1" tooltips="1" connect="1" arrows="1" fold="1" page="1" pageScale="1" pageWidth="827" pageHeight="1169" math="0" shadow="0">
            <root>
                <mxCell id="WIyWlLk6GJQsqaUBKTNV-0"/>
                <mxCell id="WIyWlLk6GJQsqaUBKTNV-1" parent="WIyWlLk6GJQsqaUBKTNV-0"/>
                <mxCell id="-AKpPJvp-0c80I_1BFYV-2" style="edgeStyle=orthogonalEdgeStyle;rounded=0;orthogonalLoop=1;jettySize=auto;html=1;exitX=0.5;exitY=1;exitDx=0;exitDy=0;" parent="WIyWlLk6GJQsqaUBKTNV-1" source="-AKpPJvp-0c80I_1BFYV-0" target="-AKpPJvp-0c80I_1BFYV-1" edge="1">
                    <mxGeometry relative="1" as="geometry"/>
                </mxCell>
                <mxCell id="-AKpPJvp-0c80I_1BFYV-0" value="Start" style="rounded=1;whiteSpace=wrap;html=1;" parent="WIyWlLk6GJQsqaUBKTNV-1" vertex="1">
                    <mxGeometry x="401" y="40" width="120" height="60" as="geometry"/>
                </mxCell>
                <mxCell id="-AKpPJvp-0c80I_1BFYV-4" style="edgeStyle=orthogonalEdgeStyle;rounded=0;orthogonalLoop=1;jettySize=auto;html=1;exitX=0.5;exitY=1;exitDx=0;exitDy=0;" parent="WIyWlLk6GJQsqaUBKTNV-1" source="-AKpPJvp-0c80I_1BFYV-1" target="-AKpPJvp-0c80I_1BFYV-3" edge="1">
                    <mxGeometry relative="1" as="geometry"/>
                </mxCell>
                <mxCell id="-AKpPJvp-0c80I_1BFYV-1" value="FindLinkByName" style="rounded=0;whiteSpace=wrap;html=1;" parent="WIyWlLk6GJQsqaUBKTNV-1" vertex="1">
                    <mxGeometry x="401" y="140" width="120" height="60" as="geometry"/>
                </mxCell>
                <mxCell id="-AKpPJvp-0c80I_1BFYV-6" style="edgeStyle=orthogonalEdgeStyle;rounded=0;orthogonalLoop=1;jettySize=auto;html=1;exitX=0;exitY=0.5;exitDx=0;exitDy=0;entryX=0.5;entryY=0;entryDx=0;entryDy=0;" parent="WIyWlLk6GJQsqaUBKTNV-1" source="-AKpPJvp-0c80I_1BFYV-3" target="-AKpPJvp-0c80I_1BFYV-5" edge="1">
                    <mxGeometry relative="1" as="geometry"/>
                </mxCell>
                <mxCell id="-AKpPJvp-0c80I_1BFYV-9" style="edgeStyle=orthogonalEdgeStyle;rounded=0;orthogonalLoop=1;jettySize=auto;html=1;exitX=1;exitY=0.5;exitDx=0;exitDy=0;entryX=1;entryY=0.5;entryDx=0;entryDy=0;" parent="WIyWlLk6GJQsqaUBKTNV-1" source="-AKpPJvp-0c80I_1BFYV-3" target="-AKpPJvp-0c80I_1BFYV-11" edge="1">
                    <mxGeometry relative="1" as="geometry">
                        <mxPoint x="591" y="320" as="targetPoint"/>
                    </mxGeometry>
                </mxCell>
                <mxCell id="-AKpPJvp-0c80I_1BFYV-3" value="Exists" style="rhombus;whiteSpace=wrap;html=1;" parent="WIyWlLk6GJQsqaUBKTNV-1" vertex="1">
                    <mxGeometry x="421" y="260" width="80" height="60" as="geometry"/>
                </mxCell>
                <mxCell id="-AKpPJvp-0c80I_1BFYV-12" style="edgeStyle=orthogonalEdgeStyle;rounded=0;orthogonalLoop=1;jettySize=auto;html=1;exitX=0.5;exitY=1;exitDx=0;exitDy=0;entryX=0;entryY=0.5;entryDx=0;entryDy=0;" parent="WIyWlLk6GJQsqaUBKTNV-1" source="-AKpPJvp-0c80I_1BFYV-5" target="-AKpPJvp-0c80I_1BFYV-11" edge="1">
                    <mxGeometry relative="1" as="geometry"/>
                </mxCell>
                <mxCell id="-AKpPJvp-0c80I_1BFYV-5" value="Create" style="rounded=0;whiteSpace=wrap;html=1;" parent="WIyWlLk6GJQsqaUBKTNV-1" vertex="1">
                    <mxGeometry x="271" y="320" width="120" height="60" as="geometry"/>
                </mxCell>
                <mxCell id="-AKpPJvp-0c80I_1BFYV-7" value="No" style="text;html=1;strokeColor=none;fillColor=none;align=center;verticalAlign=middle;whiteSpace=wrap;rounded=0;" parent="WIyWlLk6GJQsqaUBKTNV-1" vertex="1">
                    <mxGeometry x="361" y="260" width="40" height="20" as="geometry"/>
                </mxCell>
                <mxCell id="-AKpPJvp-0c80I_1BFYV-10" value="Yes" style="text;html=1;strokeColor=none;fillColor=none;align=center;verticalAlign=middle;whiteSpace=wrap;rounded=0;" parent="WIyWlLk6GJQsqaUBKTNV-1" vertex="1">
                    <mxGeometry x="521" y="260" width="40" height="20" as="geometry"/>
                </mxCell>
                <mxCell id="-AKpPJvp-0c80I_1BFYV-14" style="edgeStyle=orthogonalEdgeStyle;rounded=0;orthogonalLoop=1;jettySize=auto;html=1;exitX=0.5;exitY=1;exitDx=0;exitDy=0;" parent="WIyWlLk6GJQsqaUBKTNV-1" source="-AKpPJvp-0c80I_1BFYV-11" target="-AKpPJvp-0c80I_1BFYV-13" edge="1">
                    <mxGeometry relative="1" as="geometry"/>
                </mxCell>
                <mxCell id="-AKpPJvp-0c80I_1BFYV-11" value="GetAddr" style="rounded=0;whiteSpace=wrap;html=1;" parent="WIyWlLk6GJQsqaUBKTNV-1" vertex="1">
                    <mxGeometry x="401" y="420" width="120" height="60" as="geometry"/>
                </mxCell>
                <mxCell id="-AKpPJvp-0c80I_1BFYV-16" style="edgeStyle=orthogonalEdgeStyle;rounded=0;orthogonalLoop=1;jettySize=auto;html=1;exitX=0;exitY=0.5;exitDx=0;exitDy=0;" parent="WIyWlLk6GJQsqaUBKTNV-1" source="-AKpPJvp-0c80I_1BFYV-13" target="-AKpPJvp-0c80I_1BFYV-15" edge="1">
                    <mxGeometry relative="1" as="geometry"/>
                </mxCell>
                <mxCell id="-AKpPJvp-0c80I_1BFYV-23" style="edgeStyle=orthogonalEdgeStyle;rounded=0;orthogonalLoop=1;jettySize=auto;html=1;exitX=1;exitY=0.5;exitDx=0;exitDy=0;entryX=0.5;entryY=0;entryDx=0;entryDy=0;" parent="WIyWlLk6GJQsqaUBKTNV-1" source="-AKpPJvp-0c80I_1BFYV-13" target="-AKpPJvp-0c80I_1BFYV-22" edge="1">
                    <mxGeometry relative="1" as="geometry"/>
                </mxCell>
                <mxCell id="-AKpPJvp-0c80I_1BFYV-13" value="Match" style="rhombus;whiteSpace=wrap;html=1;" parent="WIyWlLk6GJQsqaUBKTNV-1" vertex="1">
                    <mxGeometry x="421" y="530" width="80" height="60" as="geometry"/>
                </mxCell>
                <mxCell id="-AKpPJvp-0c80I_1BFYV-18" style="edgeStyle=orthogonalEdgeStyle;rounded=0;orthogonalLoop=1;jettySize=auto;html=1;exitX=1;exitY=0.5;exitDx=0;exitDy=0;entryX=0.5;entryY=0;entryDx=0;entryDy=0;" parent="WIyWlLk6GJQsqaUBKTNV-1" source="-AKpPJvp-0c80I_1BFYV-15" target="-AKpPJvp-0c80I_1BFYV-17" edge="1">
                    <mxGeometry relative="1" as="geometry"/>
                </mxCell>
                <mxCell id="-AKpPJvp-0c80I_1BFYV-21" style="edgeStyle=orthogonalEdgeStyle;rounded=0;orthogonalLoop=1;jettySize=auto;html=1;exitX=0;exitY=0.5;exitDx=0;exitDy=0;" parent="WIyWlLk6GJQsqaUBKTNV-1" source="-AKpPJvp-0c80I_1BFYV-15" target="-AKpPJvp-0c80I_1BFYV-20" edge="1">
                    <mxGeometry relative="1" as="geometry"/>
                </mxCell>
                <mxCell id="-AKpPJvp-0c80I_1BFYV-15" value="Empty" style="rhombus;whiteSpace=wrap;html=1;" parent="WIyWlLk6GJQsqaUBKTNV-1" vertex="1">
                    <mxGeometry x="291" y="620" width="80" height="60" as="geometry"/>
                </mxCell>
                <mxCell id="-AKpPJvp-0c80I_1BFYV-27" style="edgeStyle=orthogonalEdgeStyle;rounded=0;orthogonalLoop=1;jettySize=auto;html=1;exitX=0.5;exitY=1;exitDx=0;exitDy=0;entryX=0;entryY=0.5;entryDx=0;entryDy=0;" parent="WIyWlLk6GJQsqaUBKTNV-1" source="-AKpPJvp-0c80I_1BFYV-17" target="-AKpPJvp-0c80I_1BFYV-22" edge="1">
                    <mxGeometry relative="1" as="geometry"/>
                </mxCell>
                <mxCell id="-AKpPJvp-0c80I_1BFYV-17" value="Create" style="rounded=0;whiteSpace=wrap;html=1;" parent="WIyWlLk6GJQsqaUBKTNV-1" vertex="1">
                    <mxGeometry x="381" y="730" width="120" height="60" as="geometry"/>
                </mxCell>
                <mxCell id="-AKpPJvp-0c80I_1BFYV-19" value="Yes" style="text;html=1;strokeColor=none;fillColor=none;align=center;verticalAlign=middle;whiteSpace=wrap;rounded=0;" parent="WIyWlLk6GJQsqaUBKTNV-1" vertex="1">
                    <mxGeometry x="371" y="620" width="40" height="20" as="geometry"/>
                </mxCell>
                <mxCell id="-AKpPJvp-0c80I_1BFYV-28" style="edgeStyle=orthogonalEdgeStyle;rounded=0;orthogonalLoop=1;jettySize=auto;html=1;exitX=0.5;exitY=1;exitDx=0;exitDy=0;entryX=0.5;entryY=0;entryDx=0;entryDy=0;" parent="WIyWlLk6GJQsqaUBKTNV-1" source="-AKpPJvp-0c80I_1BFYV-20" target="-AKpPJvp-0c80I_1BFYV-22" edge="1">
                    <mxGeometry relative="1" as="geometry"/>
                </mxCell>
                <mxCell id="-AKpPJvp-0c80I_1BFYV-20" value="Delete and create" style="rounded=0;whiteSpace=wrap;html=1;" parent="WIyWlLk6GJQsqaUBKTNV-1" vertex="1">
                    <mxGeometry x="161" y="730" width="120" height="60" as="geometry"/>
                </mxCell>
                <mxCell id="-AKpPJvp-0c80I_1BFYV-30" style="edgeStyle=orthogonalEdgeStyle;rounded=0;orthogonalLoop=1;jettySize=auto;html=1;exitX=0.5;exitY=1;exitDx=0;exitDy=0;entryX=0.5;entryY=0;entryDx=0;entryDy=0;" parent="WIyWlLk6GJQsqaUBKTNV-1" source="-AKpPJvp-0c80I_1BFYV-22" target="-AKpPJvp-0c80I_1BFYV-29" edge="1">
                    <mxGeometry relative="1" as="geometry"/>
                </mxCell>
                <mxCell id="-AKpPJvp-0c80I_1BFYV-22" value="Get iptable rules" style="rounded=0;whiteSpace=wrap;html=1;" parent="WIyWlLk6GJQsqaUBKTNV-1" vertex="1">
                    <mxGeometry x="525" y="850" width="120" height="60" as="geometry"/>
                </mxCell>
                <mxCell id="-AKpPJvp-0c80I_1BFYV-24" value="No" style="text;html=1;strokeColor=none;fillColor=none;align=center;verticalAlign=middle;whiteSpace=wrap;rounded=0;" parent="WIyWlLk6GJQsqaUBKTNV-1" vertex="1">
                    <mxGeometry x="371" y="530" width="40" height="20" as="geometry"/>
                </mxCell>
                <mxCell id="-AKpPJvp-0c80I_1BFYV-25" value="Yes" style="text;html=1;strokeColor=none;fillColor=none;align=center;verticalAlign=middle;whiteSpace=wrap;rounded=0;" parent="WIyWlLk6GJQsqaUBKTNV-1" vertex="1">
                    <mxGeometry x="521" y="525" width="40" height="20" as="geometry"/>
                </mxCell>
                <mxCell id="-AKpPJvp-0c80I_1BFYV-26" value="No" style="text;html=1;strokeColor=none;fillColor=none;align=center;verticalAlign=middle;whiteSpace=wrap;rounded=0;" parent="WIyWlLk6GJQsqaUBKTNV-1" vertex="1">
                    <mxGeometry x="241" y="620" width="40" height="20" as="geometry"/>
                </mxCell>
                <mxCell id="-AKpPJvp-0c80I_1BFYV-32" style="edgeStyle=orthogonalEdgeStyle;rounded=0;orthogonalLoop=1;jettySize=auto;html=1;exitX=0;exitY=0.5;exitDx=0;exitDy=0;" parent="WIyWlLk6GJQsqaUBKTNV-1" source="-AKpPJvp-0c80I_1BFYV-29" target="-AKpPJvp-0c80I_1BFYV-31" edge="1">
                    <mxGeometry relative="1" as="geometry"/>
                </mxCell>
                <mxCell id="-AKpPJvp-0c80I_1BFYV-34" style="edgeStyle=orthogonalEdgeStyle;rounded=0;orthogonalLoop=1;jettySize=auto;html=1;exitX=1;exitY=0.5;exitDx=0;exitDy=0;entryX=1;entryY=0.5;entryDx=0;entryDy=0;" parent="WIyWlLk6GJQsqaUBKTNV-1" source="-AKpPJvp-0c80I_1BFYV-29" target="-AKpPJvp-0c80I_1BFYV-33" edge="1">
                    <mxGeometry relative="1" as="geometry"/>
                </mxCell>
                <mxCell id="-AKpPJvp-0c80I_1BFYV-29" value="Match" style="rhombus;whiteSpace=wrap;html=1;" parent="WIyWlLk6GJQsqaUBKTNV-1" vertex="1">
                    <mxGeometry x="545" y="980" width="80" height="60" as="geometry"/>
                </mxCell>
                <mxCell id="-AKpPJvp-0c80I_1BFYV-35" style="edgeStyle=orthogonalEdgeStyle;rounded=0;orthogonalLoop=1;jettySize=auto;html=1;exitX=0.5;exitY=1;exitDx=0;exitDy=0;entryX=0;entryY=0.5;entryDx=0;entryDy=0;" parent="WIyWlLk6GJQsqaUBKTNV-1" source="-AKpPJvp-0c80I_1BFYV-31" target="-AKpPJvp-0c80I_1BFYV-33" edge="1">
                    <mxGeometry relative="1" as="geometry"/>
                </mxCell>
                <mxCell id="-AKpPJvp-0c80I_1BFYV-31" value="refresh rules" style="rounded=0;whiteSpace=wrap;html=1;" parent="WIyWlLk6GJQsqaUBKTNV-1" vertex="1">
                    <mxGeometry x="391" y="1080" width="120" height="60" as="geometry"/>
                </mxCell>
                <mxCell id="-AKpPJvp-0c80I_1BFYV-33" value="End" style="rounded=1;whiteSpace=wrap;html=1;" parent="WIyWlLk6GJQsqaUBKTNV-1" vertex="1">
                    <mxGeometry x="525" y="1220" width="120" height="60" as="geometry"/>
                </mxCell>
                <mxCell id="-AKpPJvp-0c80I_1BFYV-36" value="No" style="text;html=1;strokeColor=none;fillColor=none;align=center;verticalAlign=middle;whiteSpace=wrap;rounded=0;" parent="WIyWlLk6GJQsqaUBKTNV-1" vertex="1">
                    <mxGeometry x="491" y="980" width="40" height="20" as="geometry"/>
                </mxCell>
                <mxCell id="-AKpPJvp-0c80I_1BFYV-37" value="Yes" style="text;html=1;strokeColor=none;fillColor=none;align=center;verticalAlign=middle;whiteSpace=wrap;rounded=0;" parent="WIyWlLk6GJQsqaUBKTNV-1" vertex="1">
                    <mxGeometry x="625" y="980" width="40" height="20" as="geometry"/>
                </mxCell>
            </root>
        </mxGraphModel>
    </diagram>
</mxfile>